<svg xmlns="http://www.w3.org/2000/svg" width="1200" height="320" viewBox="0 0 1200 320" role="img" aria-labelledby="title desc">
  <title id="title">The Osarii Archive manuscript</title>
  <desc id="desc">An aged manuscript illustration with an eclipse, gothic ruins, mountains, cartographic lines, and Jared Prendas's developer identity.</desc>
  <defs>
    <linearGradient id="paper" x1="0" y1="0" x2="1" y2="1">
      <stop stop-color="#d8d2c4"/><stop offset=".5" stop-color="#c9bea7"/><stop offset="1" stop-color="#b9ac91"/>
    </linearGradient>
    <pattern id="grain" width="29" height="23" patternUnits="userSpaceOnUse">
      <path d="M3 7h2M19 3h1M10 19h2M25 15h1" stroke="#292930" stroke-opacity=".13"/>
    </pattern>
    <clipPath id="frame"><rect x="14" y="14" width="1172" height="292" rx="2"/></clipPath>
  </defs>
  <rect width="1200" height="320" fill="url(#paper)"/>
  <g clip-path="url(#frame)">
    <rect width="1200" height="320" fill="url(#grain)"/>
    <g fill="none" stroke="#55545b" opacity=".6">
      <circle cx="905" cy="114" r="93"/><circle cx="905" cy="114" r="68" stroke-dasharray="2 7"/>
      <path d="M797 114h216M905 6v216M827 36l156 156M827 192 983 36" stroke-width=".7"/>
    </g>
    <circle cx="905" cy="114" r="55" fill="#d8d2c4" stroke="#292930" stroke-width="2"/>
    <circle cx="887" cy="99" r="55" fill="#b9ac91" stroke="#292930"/>
    <path d="M0 226 96 157l45 32 92-78 91 78 94-47 105 81 89-63 81 60 80-78 65 62 68-45 99 67 95-35" fill="none" stroke="#55545b" stroke-width="1.4"/>
    <path d="m0 251 126-48 82 33 93-45 128 51 86-28 118 45 91-37 110 39 106-46 134 42 126-41" fill="none" stroke="#292930"/>
    <g fill="#b9ac91" stroke="#292930" stroke-width="1.2">
      <path d="M826 251V134h28V94l14-22 14 22v40h25v117Z"/>
      <path d="M910 251V155h22v-36l12-18 12 18v36h27v96Z"/>
      <path d="M866 251v-72h57v72ZM805 251v-63h27v63ZM979 251v-77h30v77Z"/>
    </g>
    <g fill="#6e1f27"><path d="M864 119h8v22h-8zM940 145h8v19h-8z"/></g>
    <g fill="none" stroke="#55545b" opacity=".5">
      <path d="M770 251h264M789 258h226"/><path d="M20 275c183-33 292 20 448-3s255-12 383 11 238-12 329-7" stroke-width="9" opacity=".2"/>
    </g>
  </g>
  <g fill="#17171c">
    <text x="74" y="74" font-family="Georgia,'Times New Roman',serif" font-size="13" letter-spacing="5" fill="#55545b">THE OSARII ARCHIVE</text>
    <text x="70" y="151" font-family="Georgia,'Times New Roman',serif" font-size="64" letter-spacing="9">OSARII</text>
    <path d="M73 170h435" stroke="#6e1f27" stroke-width="2"/><path d="M74 177h294" stroke="#55545b"/>
    <text x="74" y="207" font-family="Georgia,'Times New Roman',serif" font-size="21" letter-spacing="4">JARED PRENDAS</text>
    <text x="74" y="235" font-family="Consolas,Monaco,'Courier New',monospace" font-size="14" letter-spacing="2" fill="#3a1117">FULL-STACK DEVELOPER · COSTA RICA</text>
    <text x="74" y="271" font-family="Consolas,Monaco,'Courier New',monospace" font-size="13" fill="#55545b">jared@osarii:~$ ./build_the_unknown</text>
  </g>
  <g font-family="Consolas,Monaco,'Courier New',monospace" font-size="10" fill="#292930">
    <text x="1011" y="56">SYSTEM STATUS</text><circle cx="1129" cy="52" r="4" fill="#6e1f27"/>
    <text x="1011" y="75" fill="#55545b">BUILDING // 01</text>
  </g>
  <g fill="none" stroke="#55545b">
    <rect x="14" y="14" width="1172" height="292" rx="2" stroke="#292930"/>
    <path d="M14 43h25V14M1161 14v29h25M14 277h25v29M1161 306v-29h25" stroke="#6e1f27"/>
    <path d="M44 29h255M901 29h255M44 291h255M901 291h255" stroke-dasharray="1 6"/>
    <path d="m30 160 8-8 8 8-8 8Zm1124 0 8-8 8 8-8 8Z" fill="#6e1f27" stroke="#6e1f27"/>
  </g>
</svg>
